<mxfile host="app.diagrams.net" modified="2023-07-26T03:48:24.268Z" agent="Mozilla/5.0 (Windows NT 10.0; Win64; x64) AppleWebKit/537.36 (KHTML, like Gecko) Chrome/114.0.0.0 Safari/537.36" version="21.6.5" etag="zlabSNP_hG_I1AVYRN8J" type="github">
  <diagram name="Page-1" id="8Qv9_TzfzqMR-VvTnI0O">
    <mxGraphModel>
      <root>
        <mxCell id="0" />
        <mxCell id="1" parent="0" />
      </root>
    </mxGraphModel>
  </diagram>
</mxfile>
